<svg width="178" height="95" viewBox="0 0 178 95" fill="none" xmlns="http://www.w3.org/2000/svg">
<g clip-path="url(#clip0)">
<path d="M105.004 6.47517C100.479 2.09084 94.3525 -0.242918 88.0574 0.0200435C76.1835 0.559971 66.6238 9.9588 65.8823 21.8217C65.8823 22.4085 65.8823 23.0131 65.8823 23.5999C66.0534 28.3056 67.8292 32.811 70.9148 36.3679L88.2636 55.2008C88.6599 55.631 89.3394 55.6307 89.7353 55.2L107.423 35.9589C110.436 32.3641 112.097 27.8283 112.117 23.1376C112.135 16.8424 109.563 10.8169 105.004 6.47517ZM105.111 33.8072L89.7351 50.473C89.339 50.9023 88.6608 50.9021 88.2649 50.4727L73.2266 34.1629C70.649 31.1878 69.1569 27.4262 68.9943 23.4932C68.9943 22.9834 68.9943 22.4737 68.9943 21.9639C69.6117 11.6817 77.8917 3.52468 88.1819 3.06089H88.9999C100.042 3.06089 108.996 12.0068 109.005 23.0487C109 26.979 107.622 30.7839 105.111 33.8072Z" fill="#007878"/>
<path d="M90.7783 19.581V14.2462C90.7783 13.2641 89.9821 12.4679 89 12.4679C88.0179 12.4679 87.2217 13.2641 87.2217 14.2462V19.581H81.8869C80.9048 19.581 80.1086 20.3771 80.1086 21.3593C80.1086 22.3414 80.9048 23.1375 81.8869 23.1375H87.2217V28.4723C87.2217 29.4545 88.0179 30.2506 89 30.2506C89.9821 30.2506 90.7783 29.4545 90.7783 28.4723V23.1375H96.1131C97.0952 23.1375 97.8914 22.3414 97.8914 21.3593C97.8914 20.3771 97.0952 19.581 96.1131 19.581H90.7783Z" fill="#007878"/>
</g>
<path d="M6.144 75.592C7.53067 75.592 8.68267 75.944 9.6 76.648C10.5173 77.352 11.136 78.3067 11.456 79.512H9.52C9.25333 78.8293 8.82667 78.2907 8.24 77.896C7.664 77.4907 6.95467 77.288 6.112 77.288C5.44 77.288 4.83733 77.4533 4.304 77.784C3.78133 78.1147 3.36533 78.5893 3.056 79.208C2.75733 79.816 2.608 80.5307 2.608 81.352C2.608 82.1627 2.75733 82.8773 3.056 83.496C3.36533 84.104 3.78133 84.5733 4.304 84.904C4.83733 85.2347 5.44 85.4 6.112 85.4C6.95467 85.4 7.664 85.2027 8.24 84.808C8.82667 84.4027 9.25333 83.864 9.52 83.192H11.456C11.136 84.3973 10.5173 85.352 9.6 86.056C8.68267 86.7493 7.53067 87.096 6.144 87.096C5.07733 87.096 4.13333 86.856 3.312 86.376C2.49067 85.8853 1.856 85.208 1.408 84.344C0.96 83.4693 0.736 82.472 0.736 81.352C0.736 80.232 0.96 79.24 1.408 78.376C1.856 77.5013 2.49067 76.8187 3.312 76.328C4.13333 75.8373 5.07733 75.592 6.144 75.592ZM15.0999 79.912C15.3985 79.336 15.8252 78.8827 16.3799 78.552C16.9345 78.2107 17.5745 78.04 18.2999 78.04V80.024H17.7559C16.9559 80.024 16.3105 80.2213 15.8199 80.616C15.3399 81 15.0999 81.64 15.0999 82.536V87H13.2759V78.184H15.0999V79.912ZM27.8585 82.168C27.8585 82.4667 27.8372 82.728 27.7945 82.952H21.0105C21.0425 83.8587 21.2932 84.5307 21.7625 84.968C22.2318 85.4053 22.8132 85.624 23.5065 85.624C24.1145 85.624 24.6265 85.4693 25.0425 85.16C25.4692 84.8507 25.7305 84.44 25.8265 83.928H27.7785C27.6612 84.5467 27.4158 85.096 27.0425 85.576C26.6692 86.056 26.1838 86.4347 25.5865 86.712C24.9892 86.9787 24.3225 87.112 23.5865 87.112C22.7332 87.112 21.9758 86.9307 21.3145 86.568C20.6638 86.2053 20.1518 85.6827 19.7785 85C19.4052 84.3173 19.2185 83.512 19.2185 82.584C19.2185 81.6667 19.4052 80.8667 19.7785 80.184C20.1518 79.5013 20.6638 78.9787 21.3145 78.616C21.9758 78.2533 22.7332 78.072 23.5865 78.072C24.4505 78.072 25.2025 78.2533 25.8425 78.616C26.4932 78.968 26.9892 79.4587 27.3305 80.088C27.6825 80.7067 27.8585 81.4 27.8585 82.168ZM26.0185 82.12C26.0398 81.544 25.9385 81.064 25.7145 80.68C25.5012 80.2853 25.2025 79.9973 24.8185 79.816C24.4452 79.624 24.0345 79.528 23.5865 79.528C22.8718 79.528 22.2745 79.7467 21.7945 80.184C21.3145 80.6213 21.0532 81.2667 21.0105 82.12H26.0185ZM33.1556 78.072C33.9556 78.072 34.6383 78.2693 35.2036 78.664C35.769 79.0587 36.169 79.5813 36.4036 80.232V78.184H38.2276V87H36.4036V84.952C36.169 85.6027 35.769 86.1253 35.2036 86.52C34.6383 86.9147 33.9556 87.112 33.1556 87.112C32.3876 87.112 31.6996 86.9307 31.0916 86.568C30.4943 86.2053 30.025 85.6827 29.6836 85C29.3423 84.3173 29.1716 83.512 29.1716 82.584C29.1716 81.6667 29.3423 80.8667 29.6836 80.184C30.025 79.5013 30.4943 78.9787 31.0916 78.616C31.6996 78.2533 32.3876 78.072 33.1556 78.072ZM33.7156 79.672C32.905 79.672 32.2543 79.9333 31.7636 80.456C31.2836 80.968 31.0436 81.6773 31.0436 82.584C31.0436 83.4907 31.2836 84.2053 31.7636 84.728C32.2543 85.24 32.905 85.496 33.7156 85.496C34.2276 85.496 34.6863 85.3787 35.0916 85.144C35.497 84.8987 35.817 84.5573 36.0516 84.12C36.2863 83.6827 36.4036 83.1707 36.4036 82.584C36.4036 82.008 36.2863 81.5013 36.0516 81.064C35.817 80.616 35.497 80.2747 35.0916 80.04C34.6863 79.7947 34.2276 79.672 33.7156 79.672ZM44.8485 85.416V87H43.7285C42.7898 87 42.0752 86.776 41.5845 86.328C41.1045 85.8693 40.8645 85.112 40.8645 84.056V79.736H39.6005V78.184H40.8645V75.992H42.7045V78.184H44.8325V79.736H42.7045V84.088C42.7045 84.5893 42.7952 84.936 42.9765 85.128C43.1685 85.32 43.4992 85.416 43.9685 85.416H44.8485ZM54.7491 82.168C54.7491 82.4667 54.7278 82.728 54.6851 82.952H47.9011C47.9331 83.8587 48.1838 84.5307 48.6531 84.968C49.1225 85.4053 49.7038 85.624 50.3971 85.624C51.0051 85.624 51.5171 85.4693 51.9331 85.16C52.3598 84.8507 52.6211 84.44 52.7171 83.928H54.6691C54.5518 84.5467 54.3065 85.096 53.9331 85.576C53.5598 86.056 53.0745 86.4347 52.4771 86.712C51.8798 86.9787 51.2131 87.112 50.4771 87.112C49.6238 87.112 48.8665 86.9307 48.2051 86.568C47.5545 86.2053 47.0425 85.6827 46.6691 85C46.2958 84.3173 46.1091 83.512 46.1091 82.584C46.1091 81.6667 46.2958 80.8667 46.6691 80.184C47.0425 79.5013 47.5545 78.9787 48.2051 78.616C48.8665 78.2533 49.6238 78.072 50.4771 78.072C51.3411 78.072 52.0931 78.2533 52.7331 78.616C53.3838 78.968 53.8798 79.4587 54.2211 80.088C54.5731 80.7067 54.7491 81.4 54.7491 82.168ZM52.9091 82.12C52.9305 81.544 52.8291 81.064 52.6051 80.68C52.3918 80.2853 52.0931 79.9973 51.7091 79.816C51.3358 79.624 50.9251 79.528 50.4771 79.528C49.7625 79.528 49.1651 79.7467 48.6851 80.184C48.2051 80.6213 47.9438 81.2667 47.9011 82.12H52.9091ZM63.7963 78.072C64.5963 78.072 65.2789 78.2693 65.8443 78.664C66.4096 79.0587 66.8096 79.5813 67.0443 80.232V78.184H68.8683V87H67.0443V84.952C66.8096 85.6027 66.4096 86.1253 65.8443 86.52C65.2789 86.9147 64.5963 87.112 63.7963 87.112C63.0283 87.112 62.3403 86.9307 61.7323 86.568C61.1349 86.2053 60.6656 85.6827 60.3243 85C59.9829 84.3173 59.8123 83.512 59.8123 82.584C59.8123 81.6667 59.9829 80.8667 60.3243 80.184C60.6656 79.5013 61.1349 78.9787 61.7323 78.616C62.3403 78.2533 63.0283 78.072 63.7963 78.072ZM64.3563 79.672C63.5456 79.672 62.8949 79.9333 62.4043 80.456C61.9243 80.968 61.6843 81.6773 61.6843 82.584C61.6843 83.4907 61.9243 84.2053 62.4043 84.728C62.8949 85.24 63.5456 85.496 64.3563 85.496C64.8683 85.496 65.3269 85.3787 65.7323 85.144C66.1376 84.8987 66.4576 84.5573 66.6923 84.12C66.9269 83.6827 67.0443 83.1707 67.0443 82.584C67.0443 82.008 66.9269 81.5013 66.6923 81.064C66.4576 80.616 66.1376 80.2747 65.7323 80.04C65.3269 79.7947 64.8683 79.672 64.3563 79.672ZM79.7351 78.04C80.7591 78.04 81.5805 78.3707 82.1991 79.032C82.8178 79.6933 83.1271 80.6373 83.1271 81.864V87H81.3031V82.056C81.3031 81.2667 81.1005 80.6587 80.6951 80.232C80.2898 79.7947 79.7351 79.576 79.0311 79.576C78.3058 79.576 77.7245 79.8107 77.2871 80.28C76.8498 80.7387 76.6311 81.416 76.6311 82.312V87H74.8071V78.184H76.6311V80.12C76.8658 79.4587 77.2605 78.9467 77.8151 78.584C78.3698 78.2213 79.0098 78.04 79.7351 78.04ZM93.4523 82.168C93.4523 82.4667 93.4309 82.728 93.3883 82.952H86.6043C86.6363 83.8587 86.8869 84.5307 87.3563 84.968C87.8256 85.4053 88.4069 85.624 89.1003 85.624C89.7083 85.624 90.2203 85.4693 90.6363 85.16C91.0629 84.8507 91.3243 84.44 91.4203 83.928H93.3723C93.2549 84.5467 93.0096 85.096 92.6363 85.576C92.2629 86.056 91.7776 86.4347 91.1803 86.712C90.5829 86.9787 89.9163 87.112 89.1803 87.112C88.3269 87.112 87.5696 86.9307 86.9083 86.568C86.2576 86.2053 85.7456 85.6827 85.3723 85C84.9989 84.3173 84.8123 83.512 84.8123 82.584C84.8123 81.6667 84.9989 80.8667 85.3723 80.184C85.7456 79.5013 86.2576 78.9787 86.9083 78.616C87.5696 78.2533 88.3269 78.072 89.1803 78.072C90.0443 78.072 90.7963 78.2533 91.4363 78.616C92.0869 78.968 92.5829 79.4587 92.9243 80.088C93.2763 80.7067 93.4523 81.4 93.4523 82.168ZM91.6123 82.12C91.6336 81.544 91.5323 81.064 91.3083 80.68C91.0949 80.2853 90.7963 79.9973 90.4123 79.816C90.0389 79.624 89.6283 79.528 89.1803 79.528C88.4656 79.528 87.8683 79.7467 87.3883 80.184C86.9083 80.6213 86.6469 81.2667 86.6043 82.12H91.6123ZM107.565 78.184L105.117 87H103.101L100.925 80.184L98.7174 87H96.7174L94.2694 78.184H96.1094L97.7894 85.32L99.9974 78.184H101.917L104.157 85.32L105.837 78.184H107.565ZM116.093 78.072C116.893 78.072 117.576 78.2693 118.141 78.664C118.706 79.0587 119.106 79.5813 119.341 80.232V78.184H121.165V87H119.341V84.952C119.106 85.6027 118.706 86.1253 118.141 86.52C117.576 86.9147 116.893 87.112 116.093 87.112C115.325 87.112 114.637 86.9307 114.029 86.568C113.432 86.2053 112.962 85.6827 112.621 85C112.28 84.3173 112.109 83.512 112.109 82.584C112.109 81.6667 112.28 80.8667 112.621 80.184C112.962 79.5013 113.432 78.9787 114.029 78.616C114.637 78.2533 115.325 78.072 116.093 78.072ZM116.653 79.672C115.842 79.672 115.192 79.9333 114.701 80.456C114.221 80.968 113.981 81.6773 113.981 82.584C113.981 83.4907 114.221 84.2053 114.701 84.728C115.192 85.24 115.842 85.496 116.653 85.496C117.165 85.496 117.624 85.3787 118.029 85.144C118.434 84.8987 118.754 84.5573 118.989 84.12C119.224 83.6827 119.341 83.1707 119.341 82.584C119.341 82.008 119.224 81.5013 118.989 81.064C118.754 80.616 118.434 80.2747 118.029 80.04C117.624 79.7947 117.165 79.672 116.653 79.672ZM126.89 78.072C127.69 78.072 128.373 78.2693 128.938 78.664C129.503 79.0587 129.898 79.5813 130.122 80.232V75.16H131.962V87H130.122V84.952C129.898 85.6027 129.503 86.1253 128.938 86.52C128.373 86.9147 127.69 87.112 126.89 87.112C126.122 87.112 125.434 86.9307 124.826 86.568C124.229 86.2053 123.759 85.6827 123.418 85C123.077 84.3173 122.906 83.512 122.906 82.584C122.906 81.6667 123.077 80.8667 123.418 80.184C123.759 79.5013 124.229 78.9787 124.826 78.616C125.434 78.2533 126.122 78.072 126.89 78.072ZM127.45 79.672C126.639 79.672 125.989 79.9333 125.498 80.456C125.018 80.968 124.778 81.6773 124.778 82.584C124.778 83.4907 125.018 84.2053 125.498 84.728C125.989 85.24 126.639 85.496 127.45 85.496C127.962 85.496 128.421 85.3787 128.826 85.144C129.231 84.8987 129.551 84.5573 129.786 84.12C130.021 83.6827 130.138 83.1707 130.138 82.584C130.138 82.008 130.021 81.5013 129.786 81.064C129.551 80.616 129.231 80.2747 128.826 80.04C128.421 79.7947 127.962 79.672 127.45 79.672ZM137.687 78.072C138.487 78.072 139.17 78.2693 139.735 78.664C140.3 79.0587 140.695 79.5813 140.919 80.232V75.16H142.759V87H140.919V84.952C140.695 85.6027 140.3 86.1253 139.735 86.52C139.17 86.9147 138.487 87.112 137.687 87.112C136.919 87.112 136.231 86.9307 135.623 86.568C135.026 86.2053 134.556 85.6827 134.215 85C133.874 84.3173 133.703 83.512 133.703 82.584C133.703 81.6667 133.874 80.8667 134.215 80.184C134.556 79.5013 135.026 78.9787 135.623 78.616C136.231 78.2533 136.919 78.072 137.687 78.072ZM138.247 79.672C137.436 79.672 136.786 79.9333 136.295 80.456C135.815 80.968 135.575 81.6773 135.575 82.584C135.575 83.4907 135.815 84.2053 136.295 84.728C136.786 85.24 137.436 85.496 138.247 85.496C138.759 85.496 139.218 85.3787 139.623 85.144C140.028 84.8987 140.348 84.5573 140.583 84.12C140.818 83.6827 140.935 83.1707 140.935 82.584C140.935 82.008 140.818 81.5013 140.583 81.064C140.348 80.616 140.028 80.2747 139.623 80.04C139.218 79.7947 138.759 79.672 138.247 79.672ZM146.772 79.912C147.07 79.336 147.497 78.8827 148.052 78.552C148.606 78.2107 149.246 78.04 149.972 78.04V80.024H149.428C148.628 80.024 147.982 80.2213 147.492 80.616C147.012 81 146.772 81.64 146.772 82.536V87H144.948V78.184H146.772V79.912ZM159.53 82.168C159.53 82.4667 159.509 82.728 159.466 82.952H152.682C152.714 83.8587 152.965 84.5307 153.434 84.968C153.904 85.4053 154.485 85.624 155.178 85.624C155.786 85.624 156.298 85.4693 156.714 85.16C157.141 84.8507 157.402 84.44 157.498 83.928H159.45C159.333 84.5467 159.088 85.096 158.714 85.576C158.341 86.056 157.856 86.4347 157.258 86.712C156.661 86.9787 155.994 87.112 155.258 87.112C154.405 87.112 153.648 86.9307 152.986 86.568C152.336 86.2053 151.824 85.6827 151.45 85C151.077 84.3173 150.89 83.512 150.89 82.584C150.89 81.6667 151.077 80.8667 151.45 80.184C151.824 79.5013 152.336 78.9787 152.986 78.616C153.648 78.2533 154.405 78.072 155.258 78.072C156.122 78.072 156.874 78.2533 157.514 78.616C158.165 78.968 158.661 79.4587 159.002 80.088C159.354 80.7067 159.53 81.4 159.53 82.168ZM157.69 82.12C157.712 81.544 157.61 81.064 157.386 80.68C157.173 80.2853 156.874 79.9973 156.49 79.816C156.117 79.624 155.706 79.528 155.258 79.528C154.544 79.528 153.946 79.7467 153.466 80.184C152.986 80.6213 152.725 81.2667 152.682 82.12H157.69ZM164.188 78.072C165.222 78.072 166.049 78.3387 166.668 78.872C167.297 79.3947 167.681 80.0987 167.82 80.984H166.092C166.017 80.504 165.809 80.12 165.468 79.832C165.137 79.5333 164.694 79.384 164.14 79.384C163.681 79.384 163.324 79.496 163.068 79.72C162.822 79.9333 162.7 80.2267 162.7 80.6C162.7 80.8773 162.79 81.1013 162.972 81.272C163.153 81.4427 163.377 81.576 163.644 81.672C163.921 81.768 164.31 81.8747 164.812 81.992C165.473 82.1413 166.006 82.296 166.412 82.456C166.828 82.616 167.18 82.872 167.468 83.224C167.766 83.5653 167.916 84.0347 167.916 84.632C167.916 85.368 167.633 85.9653 167.068 86.424C166.513 86.8827 165.761 87.112 164.812 87.112C163.713 87.112 162.822 86.856 162.14 86.344C161.468 85.832 161.062 85.1173 160.924 84.2H162.7C162.753 84.68 162.966 85.0693 163.34 85.368C163.713 85.6667 164.204 85.816 164.812 85.816C165.249 85.816 165.59 85.704 165.836 85.48C166.092 85.2453 166.22 84.952 166.22 84.6C166.22 84.2907 166.124 84.0453 165.932 83.864C165.74 83.6827 165.5 83.544 165.212 83.448C164.924 83.3413 164.529 83.2347 164.028 83.128C163.388 82.9787 162.865 82.8293 162.46 82.68C162.065 82.5307 161.724 82.2907 161.436 81.96C161.158 81.6187 161.02 81.16 161.02 80.584C161.02 79.8373 161.297 79.2347 161.852 78.776C162.417 78.3067 163.196 78.072 164.188 78.072ZM172.641 78.072C173.675 78.072 174.502 78.3387 175.121 78.872C175.75 79.3947 176.134 80.0987 176.273 80.984H174.545C174.47 80.504 174.262 80.12 173.921 79.832C173.59 79.5333 173.147 79.384 172.593 79.384C172.134 79.384 171.777 79.496 171.521 79.72C171.275 79.9333 171.153 80.2267 171.153 80.6C171.153 80.8773 171.243 81.1013 171.425 81.272C171.606 81.4427 171.83 81.576 172.097 81.672C172.374 81.768 172.763 81.8747 173.265 81.992C173.926 82.1413 174.459 82.296 174.865 82.456C175.281 82.616 175.633 82.872 175.921 83.224C176.219 83.5653 176.369 84.0347 176.369 84.632C176.369 85.368 176.086 85.9653 175.521 86.424C174.966 86.8827 174.214 87.112 173.265 87.112C172.166 87.112 171.275 86.856 170.593 86.344C169.921 85.832 169.515 85.1173 169.377 84.2H171.153C171.206 84.68 171.419 85.0693 171.793 85.368C172.166 85.6667 172.657 85.816 173.265 85.816C173.702 85.816 174.043 85.704 174.289 85.48C174.545 85.2453 174.673 84.952 174.673 84.6C174.673 84.2907 174.577 84.0453 174.385 83.864C174.193 83.6827 173.953 83.544 173.665 83.448C173.377 83.3413 172.982 83.2347 172.481 83.128C171.841 82.9787 171.318 82.8293 170.913 82.68C170.518 82.5307 170.177 82.2907 169.889 81.96C169.611 81.6187 169.473 81.16 169.473 80.584C169.473 79.8373 169.75 79.2347 170.305 78.776C170.87 78.3067 171.649 78.072 172.641 78.072Z" fill="#212121" fill-opacity="0.75"/>
<defs>
<clipPath id="clip0">
<rect width="56" height="56" fill="white" transform="translate(61)"/>
</clipPath>
</defs>
</svg>
