<svg width="74" height="36" viewBox="0 0 74 36" fill="none" xmlns="http://www.w3.org/2000/svg">
<rect x="0.5" y="0.5" width="73" height="35" rx="7.5" stroke="#E4E4E4"/>
<path d="M39.296 14.166V17.54H43.048V18.52H39.296V21.964H43.468V23H38.022V13.13H43.468V14.166H39.296ZM48.254 15.216C49.0007 15.216 49.6307 15.4027 50.144 15.776C50.6667 16.1493 51.0307 16.6487 51.236 17.274V12.64H52.51V23H51.236V21.04C51.0307 21.6653 50.6667 22.1647 50.144 22.538C49.6307 22.9113 49.0007 23.098 48.254 23.098C47.5727 23.098 46.966 22.9393 46.434 22.622C45.902 22.3047 45.482 21.852 45.174 21.264C44.8754 20.6667 44.726 19.9667 44.726 19.164C44.726 18.3613 44.8754 17.6613 45.174 17.064C45.482 16.4667 45.902 16.0093 46.434 15.692C46.966 15.3747 47.5727 15.216 48.254 15.216ZM48.618 16.35C47.834 16.35 47.204 16.602 46.728 17.106C46.2614 17.6007 46.028 18.2867 46.028 19.164C46.028 20.0413 46.2614 20.732 46.728 21.236C47.204 21.7307 47.834 21.978 48.618 21.978C49.122 21.978 49.57 21.8613 49.962 21.628C50.3634 21.3947 50.676 21.068 50.9 20.648C51.124 20.2187 51.236 19.724 51.236 19.164C51.236 18.604 51.124 18.1093 50.9 17.68C50.676 17.2507 50.3634 16.924 49.962 16.7C49.57 16.4667 49.122 16.35 48.618 16.35ZM54.3136 13.06C54.3136 12.8267 54.393 12.64 54.5516 12.5C54.7103 12.3507 54.9203 12.276 55.1816 12.276C55.443 12.276 55.653 12.3507 55.8116 12.5C55.9703 12.64 56.0496 12.8267 56.0496 13.06C56.0496 13.2933 55.9703 13.4847 55.8116 13.634C55.653 13.774 55.443 13.844 55.1816 13.844C54.9203 13.844 54.7103 13.774 54.5516 13.634C54.393 13.4847 54.3136 13.2933 54.3136 13.06ZM55.8116 15.314V23H54.5376V15.314H55.8116ZM61.5279 21.88V23H60.5759C59.7919 23 59.2039 22.8133 58.8119 22.44C58.4292 22.0667 58.2379 21.4413 58.2379 20.564V16.42H57.0899V15.314H58.2379V13.396H59.5259V15.314H61.5139V16.42H59.5259V20.592C59.5259 21.0867 59.6146 21.4273 59.7919 21.614C59.9786 21.7913 60.2959 21.88 60.7439 21.88H61.5279Z" fill="#585858"/>
<path d="M27.3168 9.53923L27.2976 9.52167C26.9293 9.18528 26.4519 9 25.9534 9C25.3945 9 24.8579 9.2366 24.4811 9.64907L17.3565 17.449C17.2916 17.5201 17.2424 17.6039 17.2119 17.6952L16.3742 20.2067C16.2773 20.497 16.3259 20.8181 16.5042 21.0656C16.6839 21.315 16.9733 21.4639 17.2786 21.4639H17.2786C17.4107 21.4639 17.5397 21.4368 17.6621 21.3832L20.0877 20.3221C20.1759 20.2835 20.255 20.2269 20.3199 20.1558L27.4445 12.3559C28.1858 11.5443 28.1287 10.2808 27.3168 9.53923ZM17.9792 19.7427L18.4708 18.2691L18.5123 18.2237L19.444 19.0746L19.4025 19.1201L17.9792 19.7427ZM26.4286 11.428L20.3719 18.0589L19.4402 17.2079L25.4969 10.577C25.6154 10.4473 25.7775 10.3758 25.9534 10.3758C26.1078 10.3758 26.2556 10.4332 26.3699 10.5377L26.3892 10.5553C26.6407 10.785 26.6584 11.1765 26.4286 11.428Z" fill="#212121" fill-opacity="0.75"/>
<path d="M25.9347 15.3466C25.5548 15.3466 25.2468 15.6546 25.2468 16.0345V21.8747C25.2468 22.8394 24.462 23.6242 23.4974 23.6242H15.1599C14.1953 23.6242 13.4105 22.8394 13.4105 21.8747V13.605C13.4105 12.6404 14.1953 11.8556 15.1599 11.8556H21.1946C21.5745 11.8556 21.8825 11.5476 21.8825 11.1676C21.8825 10.7877 21.5745 10.4797 21.1946 10.4797H15.1599C13.4366 10.4797 12.0347 11.8817 12.0347 13.605V21.8747C12.0347 23.5979 13.4367 24.9999 15.1599 24.9999H23.4973C25.2206 24.9999 26.6226 23.5979 26.6226 21.8747V16.0345C26.6227 15.6546 26.3147 15.3466 25.9347 15.3466Z" fill="#212121" fill-opacity="0.75"/>
</svg>
