<svg width="106" height="36" viewBox="0 0 106 36" fill="none" xmlns="http://www.w3.org/2000/svg">
<rect x="0.5" y="0.5" width="105" height="35" rx="7.5" stroke="#E4E4E4"/>
<path d="M42.258 23L39.682 18.968H38.296V23H37.022V13.13H40.27C41.39 13.13 42.23 13.4007 42.79 13.942C43.35 14.474 43.63 15.1833 43.63 16.07C43.63 16.8727 43.406 17.5213 42.958 18.016C42.51 18.5013 41.8613 18.8047 41.012 18.926L43.7 23H42.258ZM38.296 18.044H40.158C41.6047 18.044 42.328 17.4093 42.328 16.14C42.328 14.8707 41.6047 14.236 40.158 14.236H38.296V18.044ZM52.2541 18.73C52.2541 19.0007 52.2354 19.234 52.1981 19.43H46.0521C46.0801 20.3073 46.3274 20.9653 46.7941 21.404C47.2701 21.8427 47.8488 22.062 48.5301 22.062C49.1461 22.062 49.6594 21.908 50.0701 21.6C50.4901 21.2827 50.7468 20.8627 50.8401 20.34H52.1981C52.1048 20.872 51.8948 21.348 51.5681 21.768C51.2508 22.188 50.8354 22.5147 50.3221 22.748C49.8088 22.9813 49.2301 23.098 48.5861 23.098C47.8488 23.098 47.1954 22.9393 46.6261 22.622C46.0568 22.3047 45.6088 21.852 45.2821 21.264C44.9648 20.6667 44.8061 19.9667 44.8061 19.164C44.8061 18.3613 44.9648 17.6613 45.2821 17.064C45.6088 16.4667 46.0568 16.0093 46.6261 15.692C47.1954 15.3747 47.8488 15.216 48.5861 15.216C49.3328 15.216 49.9814 15.3747 50.5321 15.692C51.0921 16.0093 51.5168 16.434 51.8061 16.966C52.1048 17.498 52.2541 18.086 52.2541 18.73ZM50.9661 18.814C50.9941 18.2447 50.9008 17.7687 50.6861 17.386C50.4714 17.0033 50.1774 16.7187 49.8041 16.532C49.4308 16.3453 49.0248 16.252 48.5861 16.252C47.8861 16.252 47.2981 16.4713 46.8221 16.91C46.3461 17.3393 46.0894 17.974 46.0521 18.814H50.9661ZM63.3704 15.188C64.2664 15.188 64.9851 15.4773 65.5264 16.056C66.0771 16.6253 66.3524 17.4513 66.3524 18.534V23H65.0784V18.646C65.0784 17.89 64.8918 17.3113 64.5184 16.91C64.1544 16.5087 63.6504 16.308 63.0064 16.308C62.3344 16.308 61.7931 16.532 61.3824 16.98C60.9811 17.4187 60.7804 18.0673 60.7804 18.926V23H59.5064V18.646C59.5064 17.89 59.3198 17.3113 58.9464 16.91C58.5731 16.5087 58.0691 16.308 57.4344 16.308C56.7531 16.308 56.2071 16.532 55.7964 16.98C55.3951 17.4187 55.1944 18.0673 55.1944 18.926V23H53.9204V15.314H55.1944V17.064C55.3811 16.4573 55.7124 15.9953 56.1884 15.678C56.6738 15.3513 57.2291 15.188 57.8544 15.188C58.5078 15.188 59.0724 15.356 59.5484 15.692C60.0338 16.0187 60.3791 16.504 60.5844 17.148C60.7991 16.5227 61.1584 16.042 61.6624 15.706C62.1664 15.3607 62.7358 15.188 63.3704 15.188ZM71.8166 15.216C72.5539 15.216 73.2119 15.3747 73.7906 15.692C74.3786 16.0093 74.8359 16.4667 75.1626 17.064C75.4986 17.6613 75.6666 18.3613 75.6666 19.164C75.6666 19.9667 75.4986 20.6667 75.1626 21.264C74.8359 21.852 74.3786 22.3047 73.7906 22.622C73.2119 22.9393 72.5539 23.098 71.8166 23.098C71.0793 23.098 70.4166 22.9393 69.8286 22.622C69.2499 22.3047 68.7926 21.852 68.4566 21.264C68.1206 20.6667 67.9526 19.9667 67.9526 19.164C67.9526 18.3613 68.1206 17.6613 68.4566 17.064C68.7926 16.4667 69.2499 16.0093 69.8286 15.692C70.4166 15.3747 71.0793 15.216 71.8166 15.216ZM71.8166 16.336C71.3593 16.336 70.9346 16.4387 70.5426 16.644C70.1599 16.8493 69.8473 17.1667 69.6046 17.596C69.3713 18.016 69.2546 18.5387 69.2546 19.164C69.2546 19.78 69.3713 20.3027 69.6046 20.732C69.8473 21.152 70.1599 21.4647 70.5426 21.67C70.9346 21.8753 71.3593 21.978 71.8166 21.978C72.2739 21.978 72.6939 21.8753 73.0766 21.67C73.4686 21.4647 73.7813 21.152 74.0146 20.732C74.2573 20.3027 74.3786 19.78 74.3786 19.164C74.3786 18.5387 74.2573 18.016 74.0146 17.596C73.7813 17.1667 73.4686 16.8493 73.0766 16.644C72.6939 16.4387 72.2739 16.336 71.8166 16.336ZM80.3087 21.642L82.6887 15.314H84.0607L81.0507 23H79.5387L76.5287 15.314H77.9007L80.3087 21.642ZM92.3811 18.73C92.3811 19.0007 92.3624 19.234 92.3251 19.43H86.1791C86.2071 20.3073 86.4544 20.9653 86.9211 21.404C87.3971 21.8427 87.9757 22.062 88.6571 22.062C89.2731 22.062 89.7864 21.908 90.1971 21.6C90.6171 21.2827 90.8737 20.8627 90.9671 20.34H92.3251C92.2317 20.872 92.0217 21.348 91.6951 21.768C91.3777 22.188 90.9624 22.5147 90.4491 22.748C89.9357 22.9813 89.3571 23.098 88.7131 23.098C87.9757 23.098 87.3224 22.9393 86.7531 22.622C86.1837 22.3047 85.7357 21.852 85.4091 21.264C85.0917 20.6667 84.9331 19.9667 84.9331 19.164C84.9331 18.3613 85.0917 17.6613 85.4091 17.064C85.7357 16.4667 86.1837 16.0093 86.7531 15.692C87.3224 15.3747 87.9757 15.216 88.7131 15.216C89.4597 15.216 90.1084 15.3747 90.6591 15.692C91.2191 16.0093 91.6437 16.434 91.9331 16.966C92.2317 17.498 92.3811 18.086 92.3811 18.73ZM91.0931 18.814C91.1211 18.2447 91.0277 17.7687 90.8131 17.386C90.5984 17.0033 90.3044 16.7187 89.9311 16.532C89.5577 16.3453 89.1517 16.252 88.7131 16.252C88.0131 16.252 87.4251 16.4713 86.9491 16.91C86.4731 17.3393 86.2164 17.974 86.1791 18.814H91.0931Z" fill="#212121" fill-opacity="0.75"/>
<path d="M25.25 12H22.5V11.5C22.5 10.6729 21.8271 10 21 10H19C18.1729 10 17.5 10.6729 17.5 11.5V12H14.75C14.0608 12 13.5 12.5608 13.5 13.25V15C13.5 15.2761 13.7239 15.5 14 15.5H14.2733L14.7052 24.5713C14.7434 25.3725 15.4015 26 16.2035 26H23.7965C24.5985 26 25.2567 25.3725 25.2948 24.5713L25.7268 15.5H26C26.2761 15.5 26.5 15.2761 26.5 15V13.25C26.5 12.5608 25.9392 12 25.25 12ZM18.5 11.5C18.5 11.2243 18.7243 11 19 11H21C21.2757 11 21.5 11.2243 21.5 11.5V12H18.5V11.5ZM14.5 13.25C14.5 13.1122 14.6122 13 14.75 13H25.25C25.3878 13 25.5 13.1122 25.5 13.25V14.5C25.3459 14.5 15.1385 14.5 14.5 14.5V13.25ZM24.2959 24.5238C24.2832 24.7908 24.0638 25 23.7965 25H16.2035C15.9362 25 15.7168 24.7908 15.7041 24.5238L15.2744 15.5H24.7256L24.2959 24.5238Z" fill="#212121" fill-opacity="0.75"/>
</svg>
